<?xml version="1.0" encoding="utf-8"?>
<!-- Generator: Adobe Illustrator 24.0.0, SVG Export Plug-In . SVG Version: 6.00 Build 0)  -->
<svg version="1.1" xmlns="http://www.w3.org/2000/svg" xmlns:xlink="http://www.w3.org/1999/xlink" x="0px" y="0px"
	 viewBox="0 0 256 256" enable-background="new 0 0 256 256" xml:space="preserve">
<g id="Layer_1">
</g>
<g id="Layer_2">
</g>
<g id="Layer_3">
</g>
<g id="Layer_4">
</g>
<g id="Layer_5">
</g>
<g id="Layer_6">
</g>
<g id="Layer_7">
</g>
<g id="Layer_8">
</g>
<g id="Layer_9">
</g>
<g id="Layer_10">
</g>
<g id="Layer_11">
</g>
<g id="Layer_12">
</g>
<g id="Layer_13">
</g>
<g id="Layer_14">
</g>
<g id="Layer_15">
</g>
<g id="Layer_16">
</g>
<g id="Layer_17">
</g>
<g id="Layer_18">
</g>
<g id="Layer_19">
</g>
<g id="Layer_20">
</g>
<g id="Layer_21">
</g>
<g id="Layer_22">
</g>
<g id="Layer_23">
</g>
<g id="Layer_24">
</g>
<g id="Layer_25">
</g>
<g id="Layer_26">
</g>
<g id="Layer_27">
</g>
<g id="Layer_28">
</g>
<g id="Layer_29">
</g>
<g id="Layer_30">
</g>
<g id="Layer_31">
</g>
<g id="Layer_32">
</g>
<g id="Layer_33">
</g>
<g id="Layer_34">
</g>
<g id="Layer_35">
</g>
<g id="Layer_36">
</g>
<g id="Layer_37">
</g>
<g id="Layer_38">
</g>
<g id="Layer_39">
</g>
<g id="Layer_40">
</g>
<g id="Layer_41">
</g>
<g id="Layer_42">
</g>
<g id="Layer_43">
</g>
<g id="Layer_44">
</g>
<g id="Layer_45">
</g>
<g id="Layer_46">
</g>
<g id="Layer_47">
</g>
<g id="Layer_48">
</g>
<g id="Layer_49">
	<g>
		<g>
			<g>
				
					<ellipse transform="matrix(0.7071 -0.7071 0.7071 0.7071 -84.8339 144.1928)" fill="#FFC7A1" cx="131.639" cy="174.5" rx="79" ry="79"/>
			</g>
		</g>
		<g>
			<g>
				<path fill="#70D6F9" d="M186.574,2.5H142.91c-0.774,0-1.477,0.452-1.797,1.157L108.003,76.5h48l32.368-71.209
					C188.965,3.984,188.009,2.5,186.574,2.5z"/>
			</g>
		</g>
		<g>
			<g>
				<path fill="#FCA265" d="M160.989,65.53l-4.986,10.97h0.388c0.966,0,1.749,0.783,1.749,1.749v5.503
					c0,0.966-0.783,1.749-1.749,1.749h-49.503c-0.966,0-1.749-0.783-1.749-1.749v-5.503c0-0.966,0.783-1.749,1.749-1.749h1.115l5-11
					H102.89c-3.452,0-6.251,2.799-6.251,6.251v31.924c10.551-5.224,22.429-8.175,35-8.175s24.449,2.95,35,8.175V71.751
					C166.639,68.501,164.159,65.833,160.989,65.53z"/>
			</g>
		</g>
		<g>
			<g>
				<path fill="#3A70BF" d="M123.529,3.657c-0.32-0.705-1.023-1.157-1.797-1.157H78.068c-1.436,0-2.391,1.484-1.797,2.791
					L103.639,65.5h9.364L132.321,23L123.529,3.657z"/>
			</g>
		</g>
		<g>
			<g>
				<path fill="#FC657E" d="M162.607,2.5H142.91c-0.774,0-1.477,0.452-1.797,1.157L108.003,76.5h18.65
					c2.631-22.693,37.107-20.587,28.487-43C148.449,16.106,156.526,6.776,162.607,2.5z"/>
			</g>
		</g>
		<g>
			<g>
				
					<ellipse transform="matrix(0.7071 -0.7071 0.7071 0.7071 -84.8339 144.1928)" fill="#FCA265" cx="131.639" cy="174.5" rx="67" ry="67"/>
			</g>
		</g>
		<g>
			<g>
				<path fill="#F5C84C" d="M57.839,108.9h-2.3v-2.3c0-1.7-1.4-3.2-3.2-3.2s-3.2,1.4-3.2,3.2v2.3h-2.3c-1.7,0-3.2,1.4-3.2,3.2
					c0,1.8,1.4,3.2,3.2,3.2h2.3v2.3c0,1.7,1.4,3.2,3.2,3.2s3.2-1.4,3.2-3.2v-2.3h2.3c1.7,0,3.2-1.4,3.2-3.2
					C61.039,110.3,59.639,108.9,57.839,108.9z"/>
			</g>
		</g>
		<g>
			<g>
				<path fill="#70D6F9" d="M203.439,62.85c-4.5-0.8-8-4.3-8.9-8.7c0-0.2-0.4-0.2-0.4,0c-0.9,4.4-4.4,7.9-8.9,8.7
					c-0.2,0-0.2,0.3,0,0.4c4.5,0.8,8,4.3,8.9,8.7c0,0.2,0.4,0.2,0.4,0c0.9-4.4,4.4-7.9,8.9-8.7
					C203.639,63.15,203.639,62.85,203.439,62.85z"/>
			</g>
		</g>
		<g>
			<g>
				<path fill="#FC657E" d="M217.87,227.378c-2.735-0.486-4.862-2.613-5.409-5.287c0-0.121-0.243-0.121-0.243,0
					c-0.547,2.674-2.674,4.801-5.409,5.287c-0.122,0-0.122,0.182,0,0.243c2.735,0.486,4.862,2.613,5.409,5.287
					c0,0.122,0.243,0.122,0.243,0c0.547-2.674,2.674-4.801,5.409-5.287C217.991,227.561,217.991,227.378,217.87,227.378z"/>
			</g>
		</g>
		<g>
			<g>
				<path fill="#87D147" d="M188.439,84.5c-1.878,0-3.4,1.522-3.4,3.4c0,1.878,1.522,3.4,3.4,3.4s3.4-1.522,3.4-3.4
					C191.839,86.022,190.317,84.5,188.439,84.5z"/>
			</g>
		</g>
		<g>
			<g>
				<path fill="#FC657E" d="M41.439,136.5c-1.878,0-3.4,1.522-3.4,3.4c0,1.878,1.522,3.4,3.4,3.4s3.4-1.522,3.4-3.4
					C44.839,138.022,43.317,136.5,41.439,136.5z"/>
			</g>
		</g>
		<g>
			<g>
				<g>
					<g>
						<path d="M131.64,93c-44.939,0-81.5,36.561-81.5,81.5S86.7,256,131.64,256s81.5-36.561,81.5-81.5S176.579,93,131.64,93z
							 M131.64,251c-42.183,0-76.5-34.318-76.5-76.5S89.457,98,131.64,98s76.5,34.318,76.5,76.5S173.822,251,131.64,251z"/>
					</g>
				</g>
			</g>
		</g>
		<g>
			<g>
				<g>
					<g>
						<path d="M190.335,2.051C189.508,0.767,188.103,0,186.574,0H142.91c-1.75,0-3.349,1.029-4.073,2.623l-33.11,72.843
							c-0.352,0.774-0.286,1.673,0.175,2.388c0.46,0.715,1.252,1.146,2.102,1.146h48c0.98,0,1.87-0.573,2.276-1.465l32.368-71.21
							C191.279,4.934,191.163,3.336,190.335,2.051z M154.394,74h-42.508l31.363-69h42.508L154.394,74z"/>
					</g>
				</g>
			</g>
		</g>
		<g>
			<g>
				<g>
					<g>
						<path d="M156.391,74c-1.381,0-2.5,1.119-2.5,2.5c0,1.119,0.735,2.066,1.749,2.385V83h-48v-4h0.027c1.381,0,2.5-1.119,2.5-2.5
							s-1.119-2.5-2.5-2.5h-0.779c-2.343,0-4.248,1.906-4.248,4.249v5.503c0,2.343,1.905,4.249,4.248,4.249h49.503
							c2.343,0,4.249-1.906,4.249-4.249v-5.503C160.64,75.906,158.733,74,156.391,74z"/>
					</g>
				</g>
			</g>
		</g>
		<g>
			<g>
				<path d="M162.292,63.21c-1.349-0.298-2.684,0.55-2.982,1.898c-0.3,1.348,0.55,2.684,1.898,2.983
					c1.698,0.377,2.932,1.917,2.932,3.66v31.563c0,1.381,1.119,2.5,2.5,2.5s2.5-1.119,2.5-2.5V71.751
					C169.14,67.684,166.26,64.092,162.292,63.21z"/>
			</g>
		</g>
		<g>
			<g>
				<path d="M112.208,63h-9.317c-4.825,0-8.751,3.926-8.751,8.751v31.28c0,1.381,1.119,2.5,2.5,2.5s2.5-1.119,2.5-2.5v-31.28
					c0-2.068,1.683-3.751,3.751-3.751h9.317c1.381,0,2.5-1.119,2.5-2.5S113.589,63,112.208,63z"/>
			</g>
		</g>
		<g>
			<g>
				<path d="M134.344,21.407l-8.538-18.782C125.083,1.03,123.483,0,121.731,0H78.068c-1.528,0-2.934,0.767-3.761,2.051
					c-0.828,1.285-0.944,2.882-0.313,4.274l27.105,59.633c0.419,0.921,1.327,1.466,2.278,1.466c0.346,0,0.697-0.072,1.032-0.225
					c1.257-0.571,1.813-2.053,1.242-3.311L78.886,5h42.507l8.398,18.477c0.571,1.256,2.054,1.813,3.311,1.241
					C134.359,24.146,134.915,22.664,134.344,21.407z"/>
			</g>
		</g>
		<g>
			<g>
				<path d="M131.64,215c-1.381,0-2.5,1.119-2.5,2.5v10c0,1.381,1.119,2.5,2.5,2.5s2.5-1.119,2.5-2.5v-10
					C134.14,216.119,133.021,215,131.64,215z"/>
			</g>
		</g>
		<g>
			<g>
				<path d="M121.64,215c-1.381,0-2.5,1.119-2.5,2.5v10c0,1.381,1.119,2.5,2.5,2.5s2.5-1.119,2.5-2.5v-10
					C124.14,216.119,123.021,215,121.64,215z"/>
			</g>
		</g>
		<g>
			<g>
				<path d="M141.64,215c-1.381,0-2.5,1.119-2.5,2.5v10c0,1.381,1.119,2.5,2.5,2.5s2.5-1.119,2.5-2.5v-10
					C144.14,216.119,143.021,215,141.64,215z"/>
			</g>
		</g>
		<g>
			<g>
				<path fill="#FFC7A1" d="M148.225,131.132c-4.579,0-8.292,3.712-8.292,8.292s3.712,8.292,8.292,8.292s8.292-3.712,8.292-8.292
					S152.805,131.132,148.225,131.132z"/>
			</g>
		</g>
		<g>
			<g>
				<path fill="#FFC7A1" d="M142.644,179.381l-11.539-6.49l12.305-13.099c2.519-2.679,1.623-7.035-1.427-8.662l-16.583-8.844
					c-2.009-1.072-4.469-0.802-6.199,0.68l-15.478,13.267c-2.318,1.987-2.586,5.477-0.6,7.794c1.984,2.314,5.473,2.59,7.794,0.6
					l12.611-10.809l6.88,3.669l-12.191,12.978c-2.458,2.616-1.805,6.846,1.319,8.603l11.575,6.511l-9.599,10.338
					c-2.077,2.237-1.948,5.735,0.289,7.812c2.238,2.078,5.734,1.947,7.812-0.289l14.372-15.478
					C146.412,185.344,145.763,181.135,142.644,179.381z"/>
			</g>
		</g>
		<g>
			<g>
				<path fill="#FFC7A1" d="M119.535,179.066c-3.124-1.756-3.777-5.986-1.319-8.603l0.1-0.107l-26.43,25.329
					c-2.204,2.112-2.279,5.611-0.166,7.815c2.107,2.199,5.607,2.283,7.816,0.166l23.573-22.591L119.535,179.066z"/>
			</g>
		</g>
		<g>
			<g>
				<path fill="#FFC7A1" d="M175.987,151.755c-1.737-2.51-5.181-3.136-7.691-1.398l-11.681,8.087l-14.697-7.349l0.065,0.035
					c3.05,1.627,3.946,5.983,1.427,8.662l-2.819,3l14.007,7.004c1.801,0.901,3.956,0.751,5.618-0.4l14.372-9.95
					C177.099,157.708,177.724,154.265,175.987,151.755z"/>
			</g>
		</g>
		<g>
			<g>
				<g>
					<g>
						<path d="M148.226,128.632c-5.951,0-10.792,4.841-10.792,10.792s4.841,10.792,10.792,10.792c5.95,0,10.791-4.841,10.791-10.792
							S154.176,128.632,148.226,128.632z M148.226,145.215c-3.193,0-5.792-2.598-5.792-5.792c0-3.193,2.599-5.792,5.792-5.792
							s5.791,2.598,5.791,5.792C154.017,142.617,151.419,145.215,148.226,145.215z"/>
					</g>
				</g>
			</g>
		</g>
		<g>
			<g>
				<g>
					<g>
						<path d="M147.863,182.957c-0.383-2.445-1.838-4.542-3.994-5.755l-8.758-4.925l10.119-10.772
							c1.702-1.81,2.443-4.276,2.033-6.766c-0.409-2.487-1.943-4.661-4.104-5.814l-16.584-8.844
							c-2.938-1.568-6.472-1.181-9.002,0.988l-15.478,13.267c-1.628,1.396-2.615,3.342-2.78,5.479
							c-0.164,2.138,0.514,4.212,1.909,5.84c2.881,3.361,7.959,3.753,11.319,0.871l11.314-9.698l2.49,1.328l-9.955,10.598
							c-1.7,1.81-2.46,4.257-2.083,6.713c0.377,2.457,1.835,4.563,3.999,5.78l8.81,4.956l-7.44,8.013
							c-1.459,1.571-2.219,3.617-2.14,5.759c0.079,2.143,0.988,4.127,2.56,5.586c1.543,1.433,3.503,2.141,5.459,2.141
							c2.156,0,4.307-0.86,5.887-2.561l14.372-15.479C147.5,187.847,148.246,185.404,147.863,182.957z M142.152,186.259
							l-14.371,15.478c-1.137,1.224-3.056,1.295-4.28,0.159c-0.593-0.55-0.936-1.298-0.965-2.106
							c-0.03-0.808,0.256-1.58,0.807-2.172l9.599-10.338c0.521-0.562,0.756-1.331,0.638-2.087c-0.118-0.756-0.576-1.417-1.244-1.792
							l-11.574-6.511c-0.816-0.458-1.365-1.253-1.508-2.18c-0.142-0.926,0.145-1.849,0.785-2.531l12.191-12.978
							c0.533-0.567,0.771-1.351,0.645-2.119c-0.127-0.768-0.604-1.433-1.29-1.799l-6.879-3.669c-0.37-0.197-0.774-0.294-1.176-0.294
							c-0.585,0-1.165,0.205-1.628,0.602l-12.611,10.809c-1.267,1.085-3.183,0.938-4.27-0.329c-0.526-0.614-0.781-1.396-0.72-2.202
							c0.063-0.806,0.435-1.54,1.049-2.067l15.478-13.266c0.955-0.817,2.288-0.964,3.395-0.373l16.584,8.844
							c0.797,0.425,1.366,1.253,1.524,2.214c0.091,0.553,0.115,1.618-0.743,2.531l-12.305,13.099
							c-0.526,0.56-0.766,1.331-0.648,2.09c0.116,0.76,0.575,1.423,1.245,1.8l11.539,6.49c0.813,0.457,1.361,1.248,1.506,2.169
							C143.068,184.653,142.787,185.575,142.152,186.259z"/>
					</g>
				</g>
			</g>
		</g>
		<g>
			<g>
				<path d="M124.153,180.076c-0.957-0.998-2.538-1.03-3.534-0.075l-22.813,21.862c-0.584,0.561-1.334,0.868-2.16,0.841
					c-0.809-0.018-1.561-0.349-2.12-0.933c-1.155-1.205-1.114-3.125,0.091-4.28l26.01-24.926c0.997-0.956,1.031-2.538,0.075-3.535
					c-0.955-0.998-2.538-1.029-3.534-0.075l-26.01,24.926c-3.196,3.063-3.305,8.154-0.242,11.35c1.481,1.546,3.478,2.424,5.62,2.472
					c0.061,0.001,0.122,0.002,0.183,0.002c2.079,0,4.043-0.789,5.548-2.231l22.813-21.862
					C125.075,182.655,125.109,181.073,124.153,180.076z"/>
			</g>
		</g>
		<g>
			<g>
				<path d="M178.042,150.333c-1.22-1.763-3.054-2.946-5.164-3.33c-2.111-0.383-4.243,0.078-6.006,1.298l-10.464,7.245
					l-13.009-6.505c-1.236-0.619-2.736-0.118-3.354,1.118c-0.617,1.235-0.117,2.737,1.118,3.354l14.333,7.167
					c0.817,0.408,1.79,0.339,2.541-0.181l11.681-8.087c0.666-0.46,1.47-0.632,2.267-0.49c0.795,0.145,1.486,0.59,1.946,1.256
					c0.461,0.665,0.635,1.469,0.49,2.265c-0.145,0.795-0.591,1.487-1.255,1.947l-14.372,9.95c-0.909,0.63-2.089,0.714-3.078,0.219
					l-13.373-6.687c-1.236-0.62-2.737-0.117-3.354,1.118s-0.116,2.737,1.118,3.354l13.373,6.687
					c1.135,0.568,2.364,0.848,3.589,0.848c1.605,0,3.203-0.481,4.571-1.428l14.372-9.95c1.764-1.22,2.945-3.055,3.328-5.164
					C179.724,154.228,179.263,152.095,178.042,150.333z"/>
			</g>
		</g>
		<g>
			<g>
				<path d="M163.944,1.483c-0.826-1.106-2.395-1.331-3.499-0.503c-5.942,4.449-14.837,14.705-7.639,33.417
					c3.705,9.634-1.4,13.495-10.741,19.489c-7.519,4.824-16.041,10.292-17.766,21.367c-0.213,1.364,0.721,2.643,2.085,2.855
					c0.13,0.021,0.26,0.03,0.388,0.03c1.211,0,2.275-0.882,2.467-2.116c1.38-8.851,8.571-13.465,15.526-17.928
					c8.463-5.43,18.056-11.585,12.707-25.492c-5.715-14.857,0.092-23.22,5.969-27.62C164.547,4.155,164.772,2.588,163.944,1.483z"/>
			</g>
		</g>
		<g>
			<g>
				<g>
					<g>
						<path d="M131.64,105c-38.322,0-69.5,31.178-69.5,69.5s31.178,69.5,69.5,69.5s69.5-31.178,69.5-69.5S169.962,105,131.64,105z
							 M131.64,239c-35.565,0-64.5-28.935-64.5-64.5s28.935-64.5,64.5-64.5s64.5,28.935,64.5,64.5S167.205,239,131.64,239z"/>
					</g>
				</g>
			</g>
		</g>
	</g>
</g>
<g id="Layer_50">
</g>
<g id="Layer_51">
</g>
<g id="Layer_52">
</g>
<g id="Layer_53">
</g>
<g id="Layer_54">
</g>
<g id="Layer_55">
</g>
<g id="Layer_56">
</g>
<g id="Layer_57">
</g>
<g id="Layer_58">
</g>
<g id="Layer_59">
</g>
<g id="Layer_60">
</g>
<g id="Layer_61">
</g>
<g id="Layer_62">
</g>
<g id="Layer_63">
</g>
<g id="Layer_64">
</g>
<g id="Layer_65">
</g>
<g id="Layer_66">
</g>
<g id="Layer_67">
</g>
<g id="Layer_68">
</g>
<g id="Layer_69">
</g>
<g id="Layer_70">
</g>
<g id="Layer_71">
</g>
<g id="Layer_72">
</g>
<g id="Layer_73">
</g>
<g id="Layer_74">
</g>
<g id="Layer_75">
</g>
</svg>
